# xmcd
#
# Track frame offsets:
#	150
#	32251
#	53281
#	77201
#	103339
#	133240
#	155806
#	181677
#	204837
#
# Disc length: 3005 seconds
#
# Revision: 2
# Processed by: cddbd v1.5.2PL0 Copyright (c) Steve Scherf et al.
# Submitted via: audiograbber 1.82.02
#
DISCID=6b0bbb09
DTITLE=Various Artist - FunkyMix 128
DYEAR=2009
DGENRE=Hip Hop
TTITLE0=Drake (Ft. Kanye West, Lil' Wayne and Eminem) - Forever (FM)
TTITLE1=Lil' Jon (Ft. Kee) - Give It All U Got (FM)
TTITLE2=I-Yaz - Replay (FM)
TTITLE3=Yo Gotti - 5 Star (FM)
TTITLE4=Jay Z (Ft. Alicia Keys) - Empire State Of Mind (FM)
TTITLE5=Jamie Foxx  (Ft. Drake and Dream) - Digital Girl (FM)
TTITLE6=Trey Songz (Ft. Gucci Mane and Soulja Boy Tell 'Em) - LOL (FM)
TTITLE7=Ester Dean and Chris Brown - Drop It Low (FM)
TTITLE8=Ginuwine (Ft. Timbaland and Missy Elliott) - Get Involved (FM)
EXTD=It's NOT Country.. Gezzz
EXTT0=
EXTT1=
EXTT2=
EXTT3=
EXTT4=
EXTT5=
EXTT6=
EXTT7=
EXTT8=
PLAYORDER=
